<mxfile host="Electron" modified="2024-01-11T11:54:57.821Z" agent="Mozilla/5.0 (X11; Linux x86_64) AppleWebKit/537.36 (KHTML, like Gecko) draw.io/22.1.16 Chrome/120.0.6099.109 Electron/28.1.0 Safari/537.36" etag="PUrXdvUQCqInnvUoXdd3" version="22.1.16" type="device">
  <diagram name="PÃ¡gina-1" id="oV5ZBmvQyCDzYb30n-6z">
    <mxGraphModel dx="1604" dy="2012" grid="1" gridSize="10" guides="1" tooltips="1" connect="1" arrows="1" fold="1" page="1" pageScale="1" pageWidth="827" pageHeight="1169" math="0" shadow="0">
      <root>
        <mxCell id="0" />
        <mxCell id="1" parent="0" />
        <mxCell id="2ZYJO4JhWG_T0RQXwEEX-2" value="DEPARTAMENTO&amp;nbsp;" style="rounded=1;whiteSpace=wrap;html=1;" parent="1" vertex="1">
          <mxGeometry x="390" y="65" width="120" height="60" as="geometry" />
        </mxCell>
        <mxCell id="2ZYJO4JhWG_T0RQXwEEX-3" value="CICLO" style="rounded=1;whiteSpace=wrap;html=1;" parent="1" vertex="1">
          <mxGeometry x="850" y="65" width="120" height="60" as="geometry" />
        </mxCell>
        <mxCell id="2ZYJO4JhWG_T0RQXwEEX-5" value="NOMBRE&amp;nbsp;" style="ellipse;whiteSpace=wrap;html=1;" parent="1" vertex="1">
          <mxGeometry x="400" y="-50" width="80" height="60" as="geometry" />
        </mxCell>
        <mxCell id="2ZYJO4JhWG_T0RQXwEEX-6" value="CODIGO" style="ellipse;whiteSpace=wrap;html=1;" parent="1" vertex="1">
          <mxGeometry x="510" y="-40" width="80" height="60" as="geometry" />
        </mxCell>
        <mxCell id="2ZYJO4JhWG_T0RQXwEEX-8" value="" style="endArrow=none;html=1;rounded=0;entryX=0.5;entryY=1;entryDx=0;entryDy=0;" parent="1" target="2ZYJO4JhWG_T0RQXwEEX-5" edge="1">
          <mxGeometry width="50" height="50" relative="1" as="geometry">
            <mxPoint x="450" y="60" as="sourcePoint" />
            <mxPoint x="500" y="20" as="targetPoint" />
          </mxGeometry>
        </mxCell>
        <mxCell id="2ZYJO4JhWG_T0RQXwEEX-9" value="" style="endArrow=none;html=1;rounded=0;exitX=0.75;exitY=0;exitDx=0;exitDy=0;" parent="1" source="2ZYJO4JhWG_T0RQXwEEX-2" target="2ZYJO4JhWG_T0RQXwEEX-6" edge="1">
          <mxGeometry width="50" height="50" relative="1" as="geometry">
            <mxPoint x="490" y="80" as="sourcePoint" />
            <mxPoint x="540" y="30" as="targetPoint" />
          </mxGeometry>
        </mxCell>
        <mxCell id="2ZYJO4JhWG_T0RQXwEEX-10" value="NOMBRE&amp;nbsp;" style="ellipse;whiteSpace=wrap;html=1;" parent="1" vertex="1">
          <mxGeometry x="850" y="-50" width="80" height="60" as="geometry" />
        </mxCell>
        <mxCell id="2ZYJO4JhWG_T0RQXwEEX-11" value="CODIGO" style="ellipse;whiteSpace=wrap;html=1;" parent="1" vertex="1">
          <mxGeometry x="950" y="-60" width="80" height="60" as="geometry" />
        </mxCell>
        <mxCell id="2ZYJO4JhWG_T0RQXwEEX-12" value="NUMERO" style="ellipse;whiteSpace=wrap;html=1;" parent="1" vertex="1">
          <mxGeometry x="1030" y="-10" width="80" height="60" as="geometry" />
        </mxCell>
        <mxCell id="2ZYJO4JhWG_T0RQXwEEX-13" value="" style="endArrow=none;html=1;rounded=0;entryX=0.625;entryY=1.017;entryDx=0;entryDy=0;entryPerimeter=0;exitX=0.442;exitY=-0.017;exitDx=0;exitDy=0;exitPerimeter=0;" parent="1" source="2ZYJO4JhWG_T0RQXwEEX-3" target="2ZYJO4JhWG_T0RQXwEEX-10" edge="1">
          <mxGeometry width="50" height="50" relative="1" as="geometry">
            <mxPoint x="910" y="39.289321881345245" as="sourcePoint" />
            <mxPoint x="910" y="-10.710678118654755" as="targetPoint" />
          </mxGeometry>
        </mxCell>
        <mxCell id="2ZYJO4JhWG_T0RQXwEEX-14" value="" style="endArrow=none;html=1;rounded=0;entryX=0.5;entryY=1;entryDx=0;entryDy=0;exitX=0.675;exitY=-0.017;exitDx=0;exitDy=0;exitPerimeter=0;" parent="1" source="2ZYJO4JhWG_T0RQXwEEX-3" target="2ZYJO4JhWG_T0RQXwEEX-11" edge="1">
          <mxGeometry width="50" height="50" relative="1" as="geometry">
            <mxPoint x="940" y="60" as="sourcePoint" />
            <mxPoint x="990" y="10" as="targetPoint" />
          </mxGeometry>
        </mxCell>
        <mxCell id="2ZYJO4JhWG_T0RQXwEEX-15" value="" style="endArrow=none;html=1;rounded=0;entryX=0.063;entryY=0.767;entryDx=0;entryDy=0;entryPerimeter=0;exitX=1;exitY=0;exitDx=0;exitDy=0;" parent="1" source="2ZYJO4JhWG_T0RQXwEEX-3" target="2ZYJO4JhWG_T0RQXwEEX-12" edge="1">
          <mxGeometry width="50" height="50" relative="1" as="geometry">
            <mxPoint x="980" y="80" as="sourcePoint" />
            <mxPoint x="1030" y="30" as="targetPoint" />
          </mxGeometry>
        </mxCell>
        <mxCell id="2ZYJO4JhWG_T0RQXwEEX-17" value="MODULO PROFESIONAL" style="rounded=1;whiteSpace=wrap;html=1;" parent="1" vertex="1">
          <mxGeometry x="860" y="320" width="120" height="60" as="geometry" />
        </mxCell>
        <mxCell id="2ZYJO4JhWG_T0RQXwEEX-18" value="NOMBRE&amp;nbsp;" style="ellipse;whiteSpace=wrap;html=1;" parent="1" vertex="1">
          <mxGeometry x="980" y="250" width="80" height="60" as="geometry" />
        </mxCell>
        <mxCell id="2ZYJO4JhWG_T0RQXwEEX-19" value="NUMERO DE HORA&amp;nbsp;" style="ellipse;whiteSpace=wrap;html=1;" parent="1" vertex="1">
          <mxGeometry x="1020" y="320" width="80" height="60" as="geometry" />
        </mxCell>
        <mxCell id="2ZYJO4JhWG_T0RQXwEEX-20" value="" style="endArrow=none;html=1;rounded=0;entryX=0.275;entryY=0.933;entryDx=0;entryDy=0;entryPerimeter=0;exitX=1;exitY=0;exitDx=0;exitDy=0;" parent="1" source="2ZYJO4JhWG_T0RQXwEEX-17" target="2ZYJO4JhWG_T0RQXwEEX-18" edge="1">
          <mxGeometry width="50" height="50" relative="1" as="geometry">
            <mxPoint x="970" y="360" as="sourcePoint" />
            <mxPoint x="1020" y="310" as="targetPoint" />
          </mxGeometry>
        </mxCell>
        <mxCell id="2ZYJO4JhWG_T0RQXwEEX-21" value="" style="endArrow=none;html=1;rounded=0;entryX=0.05;entryY=0.633;entryDx=0;entryDy=0;entryPerimeter=0;exitX=1;exitY=0.75;exitDx=0;exitDy=0;" parent="1" source="2ZYJO4JhWG_T0RQXwEEX-17" target="2ZYJO4JhWG_T0RQXwEEX-19" edge="1">
          <mxGeometry width="50" height="50" relative="1" as="geometry">
            <mxPoint x="980" y="400" as="sourcePoint" />
            <mxPoint x="1050.7106781186549" y="350" as="targetPoint" />
          </mxGeometry>
        </mxCell>
        <mxCell id="2ZYJO4JhWG_T0RQXwEEX-23" value="IMPARTE&amp;nbsp;" style="rhombus;whiteSpace=wrap;html=1;" parent="1" vertex="1">
          <mxGeometry x="660" y="55" width="80" height="80" as="geometry" />
        </mxCell>
        <mxCell id="2ZYJO4JhWG_T0RQXwEEX-26" value="" style="endArrow=none;html=1;rounded=0;entryX=0;entryY=0.5;entryDx=0;entryDy=0;exitX=1;exitY=0.5;exitDx=0;exitDy=0;" parent="1" source="2ZYJO4JhWG_T0RQXwEEX-2" target="2ZYJO4JhWG_T0RQXwEEX-23" edge="1">
          <mxGeometry width="50" height="50" relative="1" as="geometry">
            <mxPoint x="510" y="140" as="sourcePoint" />
            <mxPoint x="560" y="90" as="targetPoint" />
          </mxGeometry>
        </mxCell>
        <mxCell id="2ZYJO4JhWG_T0RQXwEEX-46" value="1:N" style="edgeLabel;html=1;align=center;verticalAlign=middle;resizable=0;points=[];" parent="2ZYJO4JhWG_T0RQXwEEX-26" vertex="1" connectable="0">
          <mxGeometry x="0.0933" y="1" relative="1" as="geometry">
            <mxPoint as="offset" />
          </mxGeometry>
        </mxCell>
        <mxCell id="2ZYJO4JhWG_T0RQXwEEX-27" value="" style="endArrow=none;html=1;rounded=0;entryX=0;entryY=0.5;entryDx=0;entryDy=0;exitX=1;exitY=0.5;exitDx=0;exitDy=0;" parent="1" source="2ZYJO4JhWG_T0RQXwEEX-23" target="2ZYJO4JhWG_T0RQXwEEX-3" edge="1">
          <mxGeometry width="50" height="50" relative="1" as="geometry">
            <mxPoint x="770" y="130" as="sourcePoint" />
            <mxPoint x="820" y="80" as="targetPoint" />
          </mxGeometry>
        </mxCell>
        <mxCell id="2ZYJO4JhWG_T0RQXwEEX-47" value="1:N" style="edgeLabel;html=1;align=center;verticalAlign=middle;resizable=0;points=[];" parent="2ZYJO4JhWG_T0RQXwEEX-27" vertex="1" connectable="0">
          <mxGeometry x="0.0364" relative="1" as="geometry">
            <mxPoint as="offset" />
          </mxGeometry>
        </mxCell>
        <mxCell id="2ZYJO4JhWG_T0RQXwEEX-28" value="COMPUESTO" style="rhombus;whiteSpace=wrap;html=1;" parent="1" vertex="1">
          <mxGeometry x="872.5" y="180" width="75" height="80" as="geometry" />
        </mxCell>
        <mxCell id="2ZYJO4JhWG_T0RQXwEEX-29" value="" style="endArrow=none;html=1;rounded=0;entryX=0.5;entryY=1;entryDx=0;entryDy=0;exitX=0.5;exitY=0;exitDx=0;exitDy=0;" parent="1" source="2ZYJO4JhWG_T0RQXwEEX-28" target="2ZYJO4JhWG_T0RQXwEEX-3" edge="1">
          <mxGeometry width="50" height="50" relative="1" as="geometry">
            <mxPoint x="870" y="210" as="sourcePoint" />
            <mxPoint x="920" y="160" as="targetPoint" />
          </mxGeometry>
        </mxCell>
        <mxCell id="2ZYJO4JhWG_T0RQXwEEX-50" value="1:N" style="edgeLabel;html=1;align=center;verticalAlign=middle;resizable=0;points=[];" parent="2ZYJO4JhWG_T0RQXwEEX-29" vertex="1" connectable="0">
          <mxGeometry x="0.0545" y="-1" relative="1" as="geometry">
            <mxPoint as="offset" />
          </mxGeometry>
        </mxCell>
        <mxCell id="2ZYJO4JhWG_T0RQXwEEX-30" value="" style="endArrow=none;html=1;rounded=0;entryX=0.5;entryY=1;entryDx=0;entryDy=0;exitX=0.442;exitY=-0.017;exitDx=0;exitDy=0;exitPerimeter=0;" parent="1" source="2ZYJO4JhWG_T0RQXwEEX-17" target="2ZYJO4JhWG_T0RQXwEEX-28" edge="1">
          <mxGeometry width="50" height="50" relative="1" as="geometry">
            <mxPoint x="880" y="320" as="sourcePoint" />
            <mxPoint x="930" y="270" as="targetPoint" />
          </mxGeometry>
        </mxCell>
        <mxCell id="2ZYJO4JhWG_T0RQXwEEX-49" value="1:N" style="edgeLabel;html=1;align=center;verticalAlign=middle;resizable=0;points=[];" parent="2ZYJO4JhWG_T0RQXwEEX-30" vertex="1" connectable="0">
          <mxGeometry x="0.0607" relative="1" as="geometry">
            <mxPoint as="offset" />
          </mxGeometry>
        </mxCell>
        <mxCell id="2ZYJO4JhWG_T0RQXwEEX-31" value="IMPARTE" style="rhombus;whiteSpace=wrap;html=1;" parent="1" vertex="1">
          <mxGeometry x="880" y="460" width="80" height="80" as="geometry" />
        </mxCell>
        <mxCell id="2ZYJO4JhWG_T0RQXwEEX-32" value="" style="endArrow=none;html=1;rounded=0;entryX=0.5;entryY=1;entryDx=0;entryDy=0;exitX=0.5;exitY=0;exitDx=0;exitDy=0;" parent="1" source="2ZYJO4JhWG_T0RQXwEEX-31" target="2ZYJO4JhWG_T0RQXwEEX-17" edge="1">
          <mxGeometry width="50" height="50" relative="1" as="geometry">
            <mxPoint x="880" y="460" as="sourcePoint" />
            <mxPoint x="930" y="410" as="targetPoint" />
          </mxGeometry>
        </mxCell>
        <mxCell id="2ZYJO4JhWG_T0RQXwEEX-52" value="1:N" style="edgeLabel;html=1;align=center;verticalAlign=middle;resizable=0;points=[];" parent="2ZYJO4JhWG_T0RQXwEEX-32" vertex="1" connectable="0">
          <mxGeometry x="-0.35" y="-3" relative="1" as="geometry">
            <mxPoint as="offset" />
          </mxGeometry>
        </mxCell>
        <mxCell id="2ZYJO4JhWG_T0RQXwEEX-33" value="DOCENTE&amp;nbsp;" style="rounded=1;whiteSpace=wrap;html=1;" parent="1" vertex="1">
          <mxGeometry x="860" y="610" width="120" height="60" as="geometry" />
        </mxCell>
        <mxCell id="2ZYJO4JhWG_T0RQXwEEX-34" value="" style="endArrow=none;html=1;rounded=0;entryX=0.5;entryY=1;entryDx=0;entryDy=0;exitX=0.5;exitY=0;exitDx=0;exitDy=0;" parent="1" source="2ZYJO4JhWG_T0RQXwEEX-33" target="2ZYJO4JhWG_T0RQXwEEX-31" edge="1">
          <mxGeometry width="50" height="50" relative="1" as="geometry">
            <mxPoint x="880" y="610" as="sourcePoint" />
            <mxPoint x="930" y="560" as="targetPoint" />
          </mxGeometry>
        </mxCell>
        <mxCell id="2ZYJO4JhWG_T0RQXwEEX-53" value="1:N" style="edgeLabel;html=1;align=center;verticalAlign=middle;resizable=0;points=[];" parent="2ZYJO4JhWG_T0RQXwEEX-34" vertex="1" connectable="0">
          <mxGeometry x="-0.2286" y="-3" relative="1" as="geometry">
            <mxPoint as="offset" />
          </mxGeometry>
        </mxCell>
        <mxCell id="2ZYJO4JhWG_T0RQXwEEX-35" value="DNI" style="ellipse;whiteSpace=wrap;html=1;" parent="1" vertex="1">
          <mxGeometry x="980" y="530" width="80" height="60" as="geometry" />
        </mxCell>
        <mxCell id="2ZYJO4JhWG_T0RQXwEEX-36" value="NOMBRE&amp;nbsp;" style="ellipse;whiteSpace=wrap;html=1;" parent="1" vertex="1">
          <mxGeometry x="1040" y="580" width="80" height="60" as="geometry" />
        </mxCell>
        <mxCell id="2ZYJO4JhWG_T0RQXwEEX-37" value="EMAIL" style="ellipse;whiteSpace=wrap;html=1;" parent="1" vertex="1">
          <mxGeometry x="1040" y="650" width="80" height="60" as="geometry" />
        </mxCell>
        <mxCell id="2ZYJO4JhWG_T0RQXwEEX-38" value="" style="endArrow=none;html=1;rounded=0;entryX=0.275;entryY=0.917;entryDx=0;entryDy=0;exitX=1;exitY=0.25;exitDx=0;exitDy=0;entryPerimeter=0;" parent="1" source="2ZYJO4JhWG_T0RQXwEEX-33" target="2ZYJO4JhWG_T0RQXwEEX-35" edge="1">
          <mxGeometry width="50" height="50" relative="1" as="geometry">
            <mxPoint x="980" y="660" as="sourcePoint" />
            <mxPoint x="1030" y="610" as="targetPoint" />
          </mxGeometry>
        </mxCell>
        <mxCell id="2ZYJO4JhWG_T0RQXwEEX-39" value="" style="endArrow=none;html=1;rounded=0;entryX=0.038;entryY=0.8;entryDx=0;entryDy=0;entryPerimeter=0;exitX=1;exitY=0.5;exitDx=0;exitDy=0;" parent="1" source="2ZYJO4JhWG_T0RQXwEEX-33" target="2ZYJO4JhWG_T0RQXwEEX-36" edge="1">
          <mxGeometry width="50" height="50" relative="1" as="geometry">
            <mxPoint x="1000" y="660" as="sourcePoint" />
            <mxPoint x="1050" y="610" as="targetPoint" />
          </mxGeometry>
        </mxCell>
        <mxCell id="2ZYJO4JhWG_T0RQXwEEX-40" value="" style="endArrow=none;html=1;rounded=0;entryX=-0.012;entryY=0.4;entryDx=0;entryDy=0;entryPerimeter=0;exitX=1;exitY=0.75;exitDx=0;exitDy=0;" parent="1" source="2ZYJO4JhWG_T0RQXwEEX-33" target="2ZYJO4JhWG_T0RQXwEEX-37" edge="1">
          <mxGeometry width="50" height="50" relative="1" as="geometry">
            <mxPoint x="1000" y="720" as="sourcePoint" />
            <mxPoint x="1050" y="670" as="targetPoint" />
          </mxGeometry>
        </mxCell>
        <mxCell id="2ZYJO4JhWG_T0RQXwEEX-48" value="N:M" style="text;html=1;align=center;verticalAlign=middle;resizable=0;points=[];autosize=1;strokeColor=none;fillColor=none;" parent="1" vertex="1">
          <mxGeometry x="675" y="28" width="50" height="30" as="geometry" />
        </mxCell>
        <mxCell id="2ZYJO4JhWG_T0RQXwEEX-51" value="N:M" style="text;html=1;align=center;verticalAlign=middle;resizable=0;points=[];autosize=1;strokeColor=none;fillColor=none;" parent="1" vertex="1">
          <mxGeometry x="810" y="205" width="50" height="30" as="geometry" />
        </mxCell>
        <mxCell id="2ZYJO4JhWG_T0RQXwEEX-54" value="N:M" style="text;html=1;align=center;verticalAlign=middle;resizable=0;points=[];autosize=1;strokeColor=none;fillColor=none;" parent="1" vertex="1">
          <mxGeometry x="827" y="485" width="50" height="30" as="geometry" />
        </mxCell>
        <mxCell id="xrrrhTzWNszur-mvrJUN-1" value="DEPARTAMENTOÂ " style="shape=table;startSize=30;container=1;collapsible=0;childLayout=tableLayout;strokeColor=default;fontSize=16;" vertex="1" parent="1">
          <mxGeometry x="110" y="830" width="390" height="265" as="geometry" />
        </mxCell>
        <mxCell id="xrrrhTzWNszur-mvrJUN-2" value="" style="shape=tableRow;horizontal=0;startSize=0;swimlaneHead=0;swimlaneBody=0;strokeColor=inherit;top=0;left=0;bottom=0;right=0;collapsible=0;dropTarget=0;fillColor=none;points=[[0,0.5],[1,0.5]];portConstraint=eastwest;fontSize=16;" vertex="1" parent="xrrrhTzWNszur-mvrJUN-1">
          <mxGeometry y="30" width="390" height="78" as="geometry" />
        </mxCell>
        <mxCell id="xrrrhTzWNszur-mvrJUN-3" value="PK.NOMBRE" style="shape=partialRectangle;html=1;whiteSpace=wrap;connectable=0;strokeColor=inherit;overflow=hidden;fillColor=none;top=0;left=0;bottom=0;right=0;pointerEvents=1;fontSize=16;" vertex="1" parent="xrrrhTzWNszur-mvrJUN-2">
          <mxGeometry width="196" height="78" as="geometry">
            <mxRectangle width="196" height="78" as="alternateBounds" />
          </mxGeometry>
        </mxCell>
        <mxCell id="xrrrhTzWNszur-mvrJUN-4" value="CODIGO" style="shape=partialRectangle;html=1;whiteSpace=wrap;connectable=0;strokeColor=inherit;overflow=hidden;fillColor=none;top=0;left=0;bottom=0;right=0;pointerEvents=1;fontSize=16;" vertex="1" parent="xrrrhTzWNszur-mvrJUN-2">
          <mxGeometry x="196" width="194" height="78" as="geometry">
            <mxRectangle width="194" height="78" as="alternateBounds" />
          </mxGeometry>
        </mxCell>
        <mxCell id="xrrrhTzWNszur-mvrJUN-6" value="" style="shape=tableRow;horizontal=0;startSize=0;swimlaneHead=0;swimlaneBody=0;strokeColor=inherit;top=0;left=0;bottom=0;right=0;collapsible=0;dropTarget=0;fillColor=none;points=[[0,0.5],[1,0.5]];portConstraint=eastwest;fontSize=16;" vertex="1" parent="xrrrhTzWNszur-mvrJUN-1">
          <mxGeometry y="108" width="390" height="79" as="geometry" />
        </mxCell>
        <mxCell id="xrrrhTzWNszur-mvrJUN-7" value="" style="shape=partialRectangle;html=1;whiteSpace=wrap;connectable=0;strokeColor=inherit;overflow=hidden;fillColor=none;top=0;left=0;bottom=0;right=0;pointerEvents=1;fontSize=16;" vertex="1" parent="xrrrhTzWNszur-mvrJUN-6">
          <mxGeometry width="196" height="79" as="geometry">
            <mxRectangle width="196" height="79" as="alternateBounds" />
          </mxGeometry>
        </mxCell>
        <mxCell id="xrrrhTzWNszur-mvrJUN-8" value="" style="shape=partialRectangle;html=1;whiteSpace=wrap;connectable=0;strokeColor=inherit;overflow=hidden;fillColor=none;top=0;left=0;bottom=0;right=0;pointerEvents=1;fontSize=16;" vertex="1" parent="xrrrhTzWNszur-mvrJUN-6">
          <mxGeometry x="196" width="194" height="79" as="geometry">
            <mxRectangle width="194" height="79" as="alternateBounds" />
          </mxGeometry>
        </mxCell>
        <mxCell id="xrrrhTzWNszur-mvrJUN-10" value="" style="shape=tableRow;horizontal=0;startSize=0;swimlaneHead=0;swimlaneBody=0;strokeColor=inherit;top=0;left=0;bottom=0;right=0;collapsible=0;dropTarget=0;fillColor=none;points=[[0,0.5],[1,0.5]];portConstraint=eastwest;fontSize=16;" vertex="1" parent="xrrrhTzWNszur-mvrJUN-1">
          <mxGeometry y="187" width="390" height="78" as="geometry" />
        </mxCell>
        <mxCell id="xrrrhTzWNszur-mvrJUN-11" value="" style="shape=partialRectangle;html=1;whiteSpace=wrap;connectable=0;strokeColor=inherit;overflow=hidden;fillColor=none;top=0;left=0;bottom=0;right=0;pointerEvents=1;fontSize=16;" vertex="1" parent="xrrrhTzWNszur-mvrJUN-10">
          <mxGeometry width="196" height="78" as="geometry">
            <mxRectangle width="196" height="78" as="alternateBounds" />
          </mxGeometry>
        </mxCell>
        <mxCell id="xrrrhTzWNszur-mvrJUN-12" value="" style="shape=partialRectangle;html=1;whiteSpace=wrap;connectable=0;strokeColor=inherit;overflow=hidden;fillColor=none;top=0;left=0;bottom=0;right=0;pointerEvents=1;fontSize=16;" vertex="1" parent="xrrrhTzWNszur-mvrJUN-10">
          <mxGeometry x="196" width="194" height="78" as="geometry">
            <mxRectangle width="194" height="78" as="alternateBounds" />
          </mxGeometry>
        </mxCell>
        <mxCell id="xrrrhTzWNszur-mvrJUN-20" value="CICLO" style="shape=table;startSize=30;container=1;collapsible=0;childLayout=tableLayout;strokeColor=default;fontSize=16;" vertex="1" parent="1">
          <mxGeometry x="590" y="830" width="413" height="210" as="geometry" />
        </mxCell>
        <mxCell id="xrrrhTzWNszur-mvrJUN-21" value="" style="shape=tableRow;horizontal=0;startSize=0;swimlaneHead=0;swimlaneBody=0;strokeColor=inherit;top=0;left=0;bottom=0;right=0;collapsible=0;dropTarget=0;fillColor=none;points=[[0,0.5],[1,0.5]];portConstraint=eastwest;fontSize=16;" vertex="1" parent="xrrrhTzWNszur-mvrJUN-20">
          <mxGeometry y="30" width="413" height="60" as="geometry" />
        </mxCell>
        <mxCell id="xrrrhTzWNszur-mvrJUN-22" value="PK.NOMBRE&lt;span style=&quot;white-space: pre;&quot;&gt;&#x9;&lt;/span&gt;" style="shape=partialRectangle;html=1;whiteSpace=wrap;connectable=0;strokeColor=inherit;overflow=hidden;fillColor=none;top=0;left=0;bottom=0;right=0;pointerEvents=1;fontSize=16;" vertex="1" parent="xrrrhTzWNszur-mvrJUN-21">
          <mxGeometry width="138" height="60" as="geometry">
            <mxRectangle width="138" height="60" as="alternateBounds" />
          </mxGeometry>
        </mxCell>
        <mxCell id="xrrrhTzWNszur-mvrJUN-23" value="CODIGO" style="shape=partialRectangle;html=1;whiteSpace=wrap;connectable=0;strokeColor=inherit;overflow=hidden;fillColor=none;top=0;left=0;bottom=0;right=0;pointerEvents=1;fontSize=16;" vertex="1" parent="xrrrhTzWNszur-mvrJUN-21">
          <mxGeometry x="138" width="137" height="60" as="geometry">
            <mxRectangle width="137" height="60" as="alternateBounds" />
          </mxGeometry>
        </mxCell>
        <mxCell id="xrrrhTzWNszur-mvrJUN-24" value="NUMERO" style="shape=partialRectangle;html=1;whiteSpace=wrap;connectable=0;strokeColor=inherit;overflow=hidden;fillColor=none;top=0;left=0;bottom=0;right=0;pointerEvents=1;fontSize=16;" vertex="1" parent="xrrrhTzWNszur-mvrJUN-21">
          <mxGeometry x="275" width="138" height="60" as="geometry">
            <mxRectangle width="138" height="60" as="alternateBounds" />
          </mxGeometry>
        </mxCell>
        <mxCell id="xrrrhTzWNszur-mvrJUN-25" value="" style="shape=tableRow;horizontal=0;startSize=0;swimlaneHead=0;swimlaneBody=0;strokeColor=inherit;top=0;left=0;bottom=0;right=0;collapsible=0;dropTarget=0;fillColor=none;points=[[0,0.5],[1,0.5]];portConstraint=eastwest;fontSize=16;" vertex="1" parent="xrrrhTzWNszur-mvrJUN-20">
          <mxGeometry y="90" width="413" height="60" as="geometry" />
        </mxCell>
        <mxCell id="xrrrhTzWNszur-mvrJUN-26" value="" style="shape=partialRectangle;html=1;whiteSpace=wrap;connectable=0;strokeColor=inherit;overflow=hidden;fillColor=none;top=0;left=0;bottom=0;right=0;pointerEvents=1;fontSize=16;" vertex="1" parent="xrrrhTzWNszur-mvrJUN-25">
          <mxGeometry width="138" height="60" as="geometry">
            <mxRectangle width="138" height="60" as="alternateBounds" />
          </mxGeometry>
        </mxCell>
        <mxCell id="xrrrhTzWNszur-mvrJUN-27" value="" style="shape=partialRectangle;html=1;whiteSpace=wrap;connectable=0;strokeColor=inherit;overflow=hidden;fillColor=none;top=0;left=0;bottom=0;right=0;pointerEvents=1;fontSize=16;" vertex="1" parent="xrrrhTzWNszur-mvrJUN-25">
          <mxGeometry x="138" width="137" height="60" as="geometry">
            <mxRectangle width="137" height="60" as="alternateBounds" />
          </mxGeometry>
        </mxCell>
        <mxCell id="xrrrhTzWNszur-mvrJUN-28" value="" style="shape=partialRectangle;html=1;whiteSpace=wrap;connectable=0;strokeColor=inherit;overflow=hidden;fillColor=none;top=0;left=0;bottom=0;right=0;pointerEvents=1;fontSize=16;" vertex="1" parent="xrrrhTzWNszur-mvrJUN-25">
          <mxGeometry x="275" width="138" height="60" as="geometry">
            <mxRectangle width="138" height="60" as="alternateBounds" />
          </mxGeometry>
        </mxCell>
        <mxCell id="xrrrhTzWNszur-mvrJUN-29" value="" style="shape=tableRow;horizontal=0;startSize=0;swimlaneHead=0;swimlaneBody=0;strokeColor=inherit;top=0;left=0;bottom=0;right=0;collapsible=0;dropTarget=0;fillColor=none;points=[[0,0.5],[1,0.5]];portConstraint=eastwest;fontSize=16;" vertex="1" parent="xrrrhTzWNszur-mvrJUN-20">
          <mxGeometry y="150" width="413" height="60" as="geometry" />
        </mxCell>
        <mxCell id="xrrrhTzWNszur-mvrJUN-30" value="" style="shape=partialRectangle;html=1;whiteSpace=wrap;connectable=0;strokeColor=inherit;overflow=hidden;fillColor=none;top=0;left=0;bottom=0;right=0;pointerEvents=1;fontSize=16;" vertex="1" parent="xrrrhTzWNszur-mvrJUN-29">
          <mxGeometry width="138" height="60" as="geometry">
            <mxRectangle width="138" height="60" as="alternateBounds" />
          </mxGeometry>
        </mxCell>
        <mxCell id="xrrrhTzWNszur-mvrJUN-31" value="" style="shape=partialRectangle;html=1;whiteSpace=wrap;connectable=0;strokeColor=inherit;overflow=hidden;fillColor=none;top=0;left=0;bottom=0;right=0;pointerEvents=1;fontSize=16;" vertex="1" parent="xrrrhTzWNszur-mvrJUN-29">
          <mxGeometry x="138" width="137" height="60" as="geometry">
            <mxRectangle width="137" height="60" as="alternateBounds" />
          </mxGeometry>
        </mxCell>
        <mxCell id="xrrrhTzWNszur-mvrJUN-32" value="" style="shape=partialRectangle;html=1;whiteSpace=wrap;connectable=0;strokeColor=inherit;overflow=hidden;fillColor=none;top=0;left=0;bottom=0;right=0;pointerEvents=1;fontSize=16;" vertex="1" parent="xrrrhTzWNszur-mvrJUN-29">
          <mxGeometry x="275" width="138" height="60" as="geometry">
            <mxRectangle width="138" height="60" as="alternateBounds" />
          </mxGeometry>
        </mxCell>
        <mxCell id="xrrrhTzWNszur-mvrJUN-33" value="MODULO PROFESIONAL" style="shape=table;startSize=30;container=1;collapsible=0;childLayout=tableLayout;strokeColor=default;fontSize=16;" vertex="1" parent="1">
          <mxGeometry x="1080" y="830" width="390" height="265" as="geometry" />
        </mxCell>
        <mxCell id="xrrrhTzWNszur-mvrJUN-34" value="" style="shape=tableRow;horizontal=0;startSize=0;swimlaneHead=0;swimlaneBody=0;strokeColor=inherit;top=0;left=0;bottom=0;right=0;collapsible=0;dropTarget=0;fillColor=none;points=[[0,0.5],[1,0.5]];portConstraint=eastwest;fontSize=16;" vertex="1" parent="xrrrhTzWNszur-mvrJUN-33">
          <mxGeometry y="30" width="390" height="78" as="geometry" />
        </mxCell>
        <mxCell id="xrrrhTzWNszur-mvrJUN-35" value="PK.NOMBRE" style="shape=partialRectangle;html=1;whiteSpace=wrap;connectable=0;strokeColor=inherit;overflow=hidden;fillColor=none;top=0;left=0;bottom=0;right=0;pointerEvents=1;fontSize=16;" vertex="1" parent="xrrrhTzWNszur-mvrJUN-34">
          <mxGeometry width="196" height="78" as="geometry">
            <mxRectangle width="196" height="78" as="alternateBounds" />
          </mxGeometry>
        </mxCell>
        <mxCell id="xrrrhTzWNszur-mvrJUN-36" value="NUMERO DE HORA" style="shape=partialRectangle;html=1;whiteSpace=wrap;connectable=0;strokeColor=inherit;overflow=hidden;fillColor=none;top=0;left=0;bottom=0;right=0;pointerEvents=1;fontSize=16;" vertex="1" parent="xrrrhTzWNszur-mvrJUN-34">
          <mxGeometry x="196" width="194" height="78" as="geometry">
            <mxRectangle width="194" height="78" as="alternateBounds" />
          </mxGeometry>
        </mxCell>
        <mxCell id="xrrrhTzWNszur-mvrJUN-37" value="" style="shape=tableRow;horizontal=0;startSize=0;swimlaneHead=0;swimlaneBody=0;strokeColor=inherit;top=0;left=0;bottom=0;right=0;collapsible=0;dropTarget=0;fillColor=none;points=[[0,0.5],[1,0.5]];portConstraint=eastwest;fontSize=16;" vertex="1" parent="xrrrhTzWNszur-mvrJUN-33">
          <mxGeometry y="108" width="390" height="79" as="geometry" />
        </mxCell>
        <mxCell id="xrrrhTzWNszur-mvrJUN-38" value="" style="shape=partialRectangle;html=1;whiteSpace=wrap;connectable=0;strokeColor=inherit;overflow=hidden;fillColor=none;top=0;left=0;bottom=0;right=0;pointerEvents=1;fontSize=16;" vertex="1" parent="xrrrhTzWNszur-mvrJUN-37">
          <mxGeometry width="196" height="79" as="geometry">
            <mxRectangle width="196" height="79" as="alternateBounds" />
          </mxGeometry>
        </mxCell>
        <mxCell id="xrrrhTzWNszur-mvrJUN-39" value="" style="shape=partialRectangle;html=1;whiteSpace=wrap;connectable=0;strokeColor=inherit;overflow=hidden;fillColor=none;top=0;left=0;bottom=0;right=0;pointerEvents=1;fontSize=16;" vertex="1" parent="xrrrhTzWNszur-mvrJUN-37">
          <mxGeometry x="196" width="194" height="79" as="geometry">
            <mxRectangle width="194" height="79" as="alternateBounds" />
          </mxGeometry>
        </mxCell>
        <mxCell id="xrrrhTzWNszur-mvrJUN-40" value="" style="shape=tableRow;horizontal=0;startSize=0;swimlaneHead=0;swimlaneBody=0;strokeColor=inherit;top=0;left=0;bottom=0;right=0;collapsible=0;dropTarget=0;fillColor=none;points=[[0,0.5],[1,0.5]];portConstraint=eastwest;fontSize=16;" vertex="1" parent="xrrrhTzWNszur-mvrJUN-33">
          <mxGeometry y="187" width="390" height="78" as="geometry" />
        </mxCell>
        <mxCell id="xrrrhTzWNszur-mvrJUN-41" value="" style="shape=partialRectangle;html=1;whiteSpace=wrap;connectable=0;strokeColor=inherit;overflow=hidden;fillColor=none;top=0;left=0;bottom=0;right=0;pointerEvents=1;fontSize=16;" vertex="1" parent="xrrrhTzWNszur-mvrJUN-40">
          <mxGeometry width="196" height="78" as="geometry">
            <mxRectangle width="196" height="78" as="alternateBounds" />
          </mxGeometry>
        </mxCell>
        <mxCell id="xrrrhTzWNszur-mvrJUN-42" value="" style="shape=partialRectangle;html=1;whiteSpace=wrap;connectable=0;strokeColor=inherit;overflow=hidden;fillColor=none;top=0;left=0;bottom=0;right=0;pointerEvents=1;fontSize=16;" vertex="1" parent="xrrrhTzWNszur-mvrJUN-40">
          <mxGeometry x="196" width="194" height="78" as="geometry">
            <mxRectangle width="194" height="78" as="alternateBounds" />
          </mxGeometry>
        </mxCell>
        <mxCell id="xrrrhTzWNszur-mvrJUN-43" value="DOCENTE" style="shape=table;startSize=30;container=1;collapsible=0;childLayout=tableLayout;strokeColor=default;fontSize=16;" vertex="1" parent="1">
          <mxGeometry x="1530" y="830" width="413" height="210" as="geometry" />
        </mxCell>
        <mxCell id="xrrrhTzWNszur-mvrJUN-44" value="" style="shape=tableRow;horizontal=0;startSize=0;swimlaneHead=0;swimlaneBody=0;strokeColor=inherit;top=0;left=0;bottom=0;right=0;collapsible=0;dropTarget=0;fillColor=none;points=[[0,0.5],[1,0.5]];portConstraint=eastwest;fontSize=16;" vertex="1" parent="xrrrhTzWNszur-mvrJUN-43">
          <mxGeometry y="30" width="413" height="60" as="geometry" />
        </mxCell>
        <mxCell id="xrrrhTzWNszur-mvrJUN-45" value="PK.DNI" style="shape=partialRectangle;html=1;whiteSpace=wrap;connectable=0;strokeColor=inherit;overflow=hidden;fillColor=none;top=0;left=0;bottom=0;right=0;pointerEvents=1;fontSize=16;" vertex="1" parent="xrrrhTzWNszur-mvrJUN-44">
          <mxGeometry width="138" height="60" as="geometry">
            <mxRectangle width="138" height="60" as="alternateBounds" />
          </mxGeometry>
        </mxCell>
        <mxCell id="xrrrhTzWNszur-mvrJUN-46" value="NOMBRE&amp;nbsp;" style="shape=partialRectangle;html=1;whiteSpace=wrap;connectable=0;strokeColor=inherit;overflow=hidden;fillColor=none;top=0;left=0;bottom=0;right=0;pointerEvents=1;fontSize=16;" vertex="1" parent="xrrrhTzWNszur-mvrJUN-44">
          <mxGeometry x="138" width="137" height="60" as="geometry">
            <mxRectangle width="137" height="60" as="alternateBounds" />
          </mxGeometry>
        </mxCell>
        <mxCell id="xrrrhTzWNszur-mvrJUN-47" value="EMAIL" style="shape=partialRectangle;html=1;whiteSpace=wrap;connectable=0;strokeColor=inherit;overflow=hidden;fillColor=none;top=0;left=0;bottom=0;right=0;pointerEvents=1;fontSize=16;" vertex="1" parent="xrrrhTzWNszur-mvrJUN-44">
          <mxGeometry x="275" width="138" height="60" as="geometry">
            <mxRectangle width="138" height="60" as="alternateBounds" />
          </mxGeometry>
        </mxCell>
        <mxCell id="xrrrhTzWNszur-mvrJUN-48" value="" style="shape=tableRow;horizontal=0;startSize=0;swimlaneHead=0;swimlaneBody=0;strokeColor=inherit;top=0;left=0;bottom=0;right=0;collapsible=0;dropTarget=0;fillColor=none;points=[[0,0.5],[1,0.5]];portConstraint=eastwest;fontSize=16;" vertex="1" parent="xrrrhTzWNszur-mvrJUN-43">
          <mxGeometry y="90" width="413" height="60" as="geometry" />
        </mxCell>
        <mxCell id="xrrrhTzWNszur-mvrJUN-49" value="" style="shape=partialRectangle;html=1;whiteSpace=wrap;connectable=0;strokeColor=inherit;overflow=hidden;fillColor=none;top=0;left=0;bottom=0;right=0;pointerEvents=1;fontSize=16;" vertex="1" parent="xrrrhTzWNszur-mvrJUN-48">
          <mxGeometry width="138" height="60" as="geometry">
            <mxRectangle width="138" height="60" as="alternateBounds" />
          </mxGeometry>
        </mxCell>
        <mxCell id="xrrrhTzWNszur-mvrJUN-50" value="" style="shape=partialRectangle;html=1;whiteSpace=wrap;connectable=0;strokeColor=inherit;overflow=hidden;fillColor=none;top=0;left=0;bottom=0;right=0;pointerEvents=1;fontSize=16;" vertex="1" parent="xrrrhTzWNszur-mvrJUN-48">
          <mxGeometry x="138" width="137" height="60" as="geometry">
            <mxRectangle width="137" height="60" as="alternateBounds" />
          </mxGeometry>
        </mxCell>
        <mxCell id="xrrrhTzWNszur-mvrJUN-51" value="" style="shape=partialRectangle;html=1;whiteSpace=wrap;connectable=0;strokeColor=inherit;overflow=hidden;fillColor=none;top=0;left=0;bottom=0;right=0;pointerEvents=1;fontSize=16;" vertex="1" parent="xrrrhTzWNszur-mvrJUN-48">
          <mxGeometry x="275" width="138" height="60" as="geometry">
            <mxRectangle width="138" height="60" as="alternateBounds" />
          </mxGeometry>
        </mxCell>
        <mxCell id="xrrrhTzWNszur-mvrJUN-52" value="" style="shape=tableRow;horizontal=0;startSize=0;swimlaneHead=0;swimlaneBody=0;strokeColor=inherit;top=0;left=0;bottom=0;right=0;collapsible=0;dropTarget=0;fillColor=none;points=[[0,0.5],[1,0.5]];portConstraint=eastwest;fontSize=16;" vertex="1" parent="xrrrhTzWNszur-mvrJUN-43">
          <mxGeometry y="150" width="413" height="60" as="geometry" />
        </mxCell>
        <mxCell id="xrrrhTzWNszur-mvrJUN-53" value="" style="shape=partialRectangle;html=1;whiteSpace=wrap;connectable=0;strokeColor=inherit;overflow=hidden;fillColor=none;top=0;left=0;bottom=0;right=0;pointerEvents=1;fontSize=16;" vertex="1" parent="xrrrhTzWNszur-mvrJUN-52">
          <mxGeometry width="138" height="60" as="geometry">
            <mxRectangle width="138" height="60" as="alternateBounds" />
          </mxGeometry>
        </mxCell>
        <mxCell id="xrrrhTzWNszur-mvrJUN-54" value="" style="shape=partialRectangle;html=1;whiteSpace=wrap;connectable=0;strokeColor=inherit;overflow=hidden;fillColor=none;top=0;left=0;bottom=0;right=0;pointerEvents=1;fontSize=16;" vertex="1" parent="xrrrhTzWNszur-mvrJUN-52">
          <mxGeometry x="138" width="137" height="60" as="geometry">
            <mxRectangle width="137" height="60" as="alternateBounds" />
          </mxGeometry>
        </mxCell>
        <mxCell id="xrrrhTzWNszur-mvrJUN-55" value="" style="shape=partialRectangle;html=1;whiteSpace=wrap;connectable=0;strokeColor=inherit;overflow=hidden;fillColor=none;top=0;left=0;bottom=0;right=0;pointerEvents=1;fontSize=16;" vertex="1" parent="xrrrhTzWNszur-mvrJUN-52">
          <mxGeometry x="275" width="138" height="60" as="geometry">
            <mxRectangle width="138" height="60" as="alternateBounds" />
          </mxGeometry>
        </mxCell>
        <mxCell id="xrrrhTzWNszur-mvrJUN-56" value="DEPARTAMENTO_CICLO" style="shape=table;startSize=30;container=1;collapsible=0;childLayout=tableLayout;strokeColor=default;fontSize=16;" vertex="1" parent="1">
          <mxGeometry x="105" y="1169" width="555" height="250" as="geometry" />
        </mxCell>
        <mxCell id="xrrrhTzWNszur-mvrJUN-57" value="" style="shape=tableRow;horizontal=0;startSize=0;swimlaneHead=0;swimlaneBody=0;strokeColor=inherit;top=0;left=0;bottom=0;right=0;collapsible=0;dropTarget=0;fillColor=none;points=[[0,0.5],[1,0.5]];portConstraint=eastwest;fontSize=16;" vertex="1" parent="xrrrhTzWNszur-mvrJUN-56">
          <mxGeometry y="30" width="555" height="73" as="geometry" />
        </mxCell>
        <mxCell id="xrrrhTzWNszur-mvrJUN-58" value="FK.NOMBREDEPARTAMENTO" style="shape=partialRectangle;html=1;whiteSpace=wrap;connectable=0;strokeColor=inherit;overflow=hidden;fillColor=none;top=0;left=0;bottom=0;right=0;pointerEvents=1;fontSize=16;" vertex="1" parent="xrrrhTzWNszur-mvrJUN-57">
          <mxGeometry width="278" height="73" as="geometry">
            <mxRectangle width="278" height="73" as="alternateBounds" />
          </mxGeometry>
        </mxCell>
        <mxCell id="xrrrhTzWNszur-mvrJUN-59" value="FK.NOMBRECICLO" style="shape=partialRectangle;html=1;whiteSpace=wrap;connectable=0;strokeColor=inherit;overflow=hidden;fillColor=none;top=0;left=0;bottom=0;right=0;pointerEvents=1;fontSize=16;" vertex="1" parent="xrrrhTzWNszur-mvrJUN-57">
          <mxGeometry x="278" width="277" height="73" as="geometry">
            <mxRectangle width="277" height="73" as="alternateBounds" />
          </mxGeometry>
        </mxCell>
        <mxCell id="xrrrhTzWNszur-mvrJUN-61" value="" style="shape=tableRow;horizontal=0;startSize=0;swimlaneHead=0;swimlaneBody=0;strokeColor=inherit;top=0;left=0;bottom=0;right=0;collapsible=0;dropTarget=0;fillColor=none;points=[[0,0.5],[1,0.5]];portConstraint=eastwest;fontSize=16;" vertex="1" parent="xrrrhTzWNszur-mvrJUN-56">
          <mxGeometry y="103" width="555" height="74" as="geometry" />
        </mxCell>
        <mxCell id="xrrrhTzWNszur-mvrJUN-62" value="" style="shape=partialRectangle;html=1;whiteSpace=wrap;connectable=0;strokeColor=inherit;overflow=hidden;fillColor=none;top=0;left=0;bottom=0;right=0;pointerEvents=1;fontSize=16;" vertex="1" parent="xrrrhTzWNszur-mvrJUN-61">
          <mxGeometry width="278" height="74" as="geometry">
            <mxRectangle width="278" height="74" as="alternateBounds" />
          </mxGeometry>
        </mxCell>
        <mxCell id="xrrrhTzWNszur-mvrJUN-63" value="" style="shape=partialRectangle;html=1;whiteSpace=wrap;connectable=0;strokeColor=inherit;overflow=hidden;fillColor=none;top=0;left=0;bottom=0;right=0;pointerEvents=1;fontSize=16;" vertex="1" parent="xrrrhTzWNszur-mvrJUN-61">
          <mxGeometry x="278" width="277" height="74" as="geometry">
            <mxRectangle width="277" height="74" as="alternateBounds" />
          </mxGeometry>
        </mxCell>
        <mxCell id="xrrrhTzWNszur-mvrJUN-65" value="" style="shape=tableRow;horizontal=0;startSize=0;swimlaneHead=0;swimlaneBody=0;strokeColor=inherit;top=0;left=0;bottom=0;right=0;collapsible=0;dropTarget=0;fillColor=none;points=[[0,0.5],[1,0.5]];portConstraint=eastwest;fontSize=16;" vertex="1" parent="xrrrhTzWNszur-mvrJUN-56">
          <mxGeometry y="177" width="555" height="73" as="geometry" />
        </mxCell>
        <mxCell id="xrrrhTzWNszur-mvrJUN-66" value="" style="shape=partialRectangle;html=1;whiteSpace=wrap;connectable=0;strokeColor=inherit;overflow=hidden;fillColor=none;top=0;left=0;bottom=0;right=0;pointerEvents=1;fontSize=16;" vertex="1" parent="xrrrhTzWNszur-mvrJUN-65">
          <mxGeometry width="278" height="73" as="geometry">
            <mxRectangle width="278" height="73" as="alternateBounds" />
          </mxGeometry>
        </mxCell>
        <mxCell id="xrrrhTzWNszur-mvrJUN-67" value="" style="shape=partialRectangle;html=1;whiteSpace=wrap;connectable=0;strokeColor=inherit;overflow=hidden;fillColor=none;top=0;left=0;bottom=0;right=0;pointerEvents=1;fontSize=16;" vertex="1" parent="xrrrhTzWNszur-mvrJUN-65">
          <mxGeometry x="278" width="277" height="73" as="geometry">
            <mxRectangle width="277" height="73" as="alternateBounds" />
          </mxGeometry>
        </mxCell>
        <mxCell id="xrrrhTzWNszur-mvrJUN-70" value="CICLO_MODULOPROFESIONAL" style="shape=table;startSize=30;container=1;collapsible=0;childLayout=tableLayout;strokeColor=default;fontSize=16;" vertex="1" parent="1">
          <mxGeometry x="750" y="1169" width="610" height="290" as="geometry" />
        </mxCell>
        <mxCell id="xrrrhTzWNszur-mvrJUN-71" value="" style="shape=tableRow;horizontal=0;startSize=0;swimlaneHead=0;swimlaneBody=0;strokeColor=inherit;top=0;left=0;bottom=0;right=0;collapsible=0;dropTarget=0;fillColor=none;points=[[0,0.5],[1,0.5]];portConstraint=eastwest;fontSize=16;" vertex="1" parent="xrrrhTzWNszur-mvrJUN-70">
          <mxGeometry y="30" width="610" height="86" as="geometry" />
        </mxCell>
        <mxCell id="xrrrhTzWNszur-mvrJUN-72" value="FK.NOMBRECICLO" style="shape=partialRectangle;html=1;whiteSpace=wrap;connectable=0;strokeColor=inherit;overflow=hidden;fillColor=none;top=0;left=0;bottom=0;right=0;pointerEvents=1;fontSize=16;" vertex="1" parent="xrrrhTzWNszur-mvrJUN-71">
          <mxGeometry width="305" height="86" as="geometry">
            <mxRectangle width="305" height="86" as="alternateBounds" />
          </mxGeometry>
        </mxCell>
        <mxCell id="xrrrhTzWNszur-mvrJUN-73" value="FK.NOMBREMODULOPROFESIONAL" style="shape=partialRectangle;html=1;whiteSpace=wrap;connectable=0;strokeColor=inherit;overflow=hidden;fillColor=none;top=0;left=0;bottom=0;right=0;pointerEvents=1;fontSize=16;" vertex="1" parent="xrrrhTzWNszur-mvrJUN-71">
          <mxGeometry x="305" width="305" height="86" as="geometry">
            <mxRectangle width="305" height="86" as="alternateBounds" />
          </mxGeometry>
        </mxCell>
        <mxCell id="xrrrhTzWNszur-mvrJUN-74" value="" style="shape=tableRow;horizontal=0;startSize=0;swimlaneHead=0;swimlaneBody=0;strokeColor=inherit;top=0;left=0;bottom=0;right=0;collapsible=0;dropTarget=0;fillColor=none;points=[[0,0.5],[1,0.5]];portConstraint=eastwest;fontSize=16;" vertex="1" parent="xrrrhTzWNszur-mvrJUN-70">
          <mxGeometry y="116" width="610" height="88" as="geometry" />
        </mxCell>
        <mxCell id="xrrrhTzWNszur-mvrJUN-75" value="" style="shape=partialRectangle;html=1;whiteSpace=wrap;connectable=0;strokeColor=inherit;overflow=hidden;fillColor=none;top=0;left=0;bottom=0;right=0;pointerEvents=1;fontSize=16;" vertex="1" parent="xrrrhTzWNszur-mvrJUN-74">
          <mxGeometry width="305" height="88" as="geometry">
            <mxRectangle width="305" height="88" as="alternateBounds" />
          </mxGeometry>
        </mxCell>
        <mxCell id="xrrrhTzWNszur-mvrJUN-76" value="" style="shape=partialRectangle;html=1;whiteSpace=wrap;connectable=0;strokeColor=inherit;overflow=hidden;fillColor=none;top=0;left=0;bottom=0;right=0;pointerEvents=1;fontSize=16;" vertex="1" parent="xrrrhTzWNszur-mvrJUN-74">
          <mxGeometry x="305" width="305" height="88" as="geometry">
            <mxRectangle width="305" height="88" as="alternateBounds" />
          </mxGeometry>
        </mxCell>
        <mxCell id="xrrrhTzWNszur-mvrJUN-77" value="" style="shape=tableRow;horizontal=0;startSize=0;swimlaneHead=0;swimlaneBody=0;strokeColor=inherit;top=0;left=0;bottom=0;right=0;collapsible=0;dropTarget=0;fillColor=none;points=[[0,0.5],[1,0.5]];portConstraint=eastwest;fontSize=16;" vertex="1" parent="xrrrhTzWNszur-mvrJUN-70">
          <mxGeometry y="204" width="610" height="86" as="geometry" />
        </mxCell>
        <mxCell id="xrrrhTzWNszur-mvrJUN-78" value="" style="shape=partialRectangle;html=1;whiteSpace=wrap;connectable=0;strokeColor=inherit;overflow=hidden;fillColor=none;top=0;left=0;bottom=0;right=0;pointerEvents=1;fontSize=16;" vertex="1" parent="xrrrhTzWNszur-mvrJUN-77">
          <mxGeometry width="305" height="86" as="geometry">
            <mxRectangle width="305" height="86" as="alternateBounds" />
          </mxGeometry>
        </mxCell>
        <mxCell id="xrrrhTzWNszur-mvrJUN-79" value="" style="shape=partialRectangle;html=1;whiteSpace=wrap;connectable=0;strokeColor=inherit;overflow=hidden;fillColor=none;top=0;left=0;bottom=0;right=0;pointerEvents=1;fontSize=16;" vertex="1" parent="xrrrhTzWNszur-mvrJUN-77">
          <mxGeometry x="305" width="305" height="86" as="geometry">
            <mxRectangle width="305" height="86" as="alternateBounds" />
          </mxGeometry>
        </mxCell>
        <mxCell id="xrrrhTzWNszur-mvrJUN-80" value="MODULOPROFESIONAL_DOCENTE" style="shape=table;startSize=30;container=1;collapsible=0;childLayout=tableLayout;strokeColor=default;fontSize=16;" vertex="1" parent="1">
          <mxGeometry x="1470" y="1169" width="590" height="309" as="geometry" />
        </mxCell>
        <mxCell id="xrrrhTzWNszur-mvrJUN-81" value="" style="shape=tableRow;horizontal=0;startSize=0;swimlaneHead=0;swimlaneBody=0;strokeColor=inherit;top=0;left=0;bottom=0;right=0;collapsible=0;dropTarget=0;fillColor=none;points=[[0,0.5],[1,0.5]];portConstraint=eastwest;fontSize=16;" vertex="1" parent="xrrrhTzWNszur-mvrJUN-80">
          <mxGeometry y="30" width="590" height="93" as="geometry" />
        </mxCell>
        <mxCell id="xrrrhTzWNszur-mvrJUN-82" value="FK.NOMBREMODULOPROFESIONAL" style="shape=partialRectangle;html=1;whiteSpace=wrap;connectable=0;strokeColor=inherit;overflow=hidden;fillColor=none;top=0;left=0;bottom=0;right=0;pointerEvents=1;fontSize=16;" vertex="1" parent="xrrrhTzWNszur-mvrJUN-81">
          <mxGeometry width="295" height="93" as="geometry">
            <mxRectangle width="295" height="93" as="alternateBounds" />
          </mxGeometry>
        </mxCell>
        <mxCell id="xrrrhTzWNszur-mvrJUN-83" value="FK.DNIDOCENTE" style="shape=partialRectangle;html=1;whiteSpace=wrap;connectable=0;strokeColor=inherit;overflow=hidden;fillColor=none;top=0;left=0;bottom=0;right=0;pointerEvents=1;fontSize=16;" vertex="1" parent="xrrrhTzWNszur-mvrJUN-81">
          <mxGeometry x="295" width="295" height="93" as="geometry">
            <mxRectangle width="295" height="93" as="alternateBounds" />
          </mxGeometry>
        </mxCell>
        <mxCell id="xrrrhTzWNszur-mvrJUN-84" value="" style="shape=tableRow;horizontal=0;startSize=0;swimlaneHead=0;swimlaneBody=0;strokeColor=inherit;top=0;left=0;bottom=0;right=0;collapsible=0;dropTarget=0;fillColor=none;points=[[0,0.5],[1,0.5]];portConstraint=eastwest;fontSize=16;" vertex="1" parent="xrrrhTzWNszur-mvrJUN-80">
          <mxGeometry y="123" width="590" height="93" as="geometry" />
        </mxCell>
        <mxCell id="xrrrhTzWNszur-mvrJUN-85" value="" style="shape=partialRectangle;html=1;whiteSpace=wrap;connectable=0;strokeColor=inherit;overflow=hidden;fillColor=none;top=0;left=0;bottom=0;right=0;pointerEvents=1;fontSize=16;" vertex="1" parent="xrrrhTzWNszur-mvrJUN-84">
          <mxGeometry width="295" height="93" as="geometry">
            <mxRectangle width="295" height="93" as="alternateBounds" />
          </mxGeometry>
        </mxCell>
        <mxCell id="xrrrhTzWNszur-mvrJUN-86" value="" style="shape=partialRectangle;html=1;whiteSpace=wrap;connectable=0;strokeColor=inherit;overflow=hidden;fillColor=none;top=0;left=0;bottom=0;right=0;pointerEvents=1;fontSize=16;" vertex="1" parent="xrrrhTzWNszur-mvrJUN-84">
          <mxGeometry x="295" width="295" height="93" as="geometry">
            <mxRectangle width="295" height="93" as="alternateBounds" />
          </mxGeometry>
        </mxCell>
        <mxCell id="xrrrhTzWNszur-mvrJUN-87" value="" style="shape=tableRow;horizontal=0;startSize=0;swimlaneHead=0;swimlaneBody=0;strokeColor=inherit;top=0;left=0;bottom=0;right=0;collapsible=0;dropTarget=0;fillColor=none;points=[[0,0.5],[1,0.5]];portConstraint=eastwest;fontSize=16;" vertex="1" parent="xrrrhTzWNszur-mvrJUN-80">
          <mxGeometry y="216" width="590" height="93" as="geometry" />
        </mxCell>
        <mxCell id="xrrrhTzWNszur-mvrJUN-88" value="" style="shape=partialRectangle;html=1;whiteSpace=wrap;connectable=0;strokeColor=inherit;overflow=hidden;fillColor=none;top=0;left=0;bottom=0;right=0;pointerEvents=1;fontSize=16;" vertex="1" parent="xrrrhTzWNszur-mvrJUN-87">
          <mxGeometry width="295" height="93" as="geometry">
            <mxRectangle width="295" height="93" as="alternateBounds" />
          </mxGeometry>
        </mxCell>
        <mxCell id="xrrrhTzWNszur-mvrJUN-89" value="" style="shape=partialRectangle;html=1;whiteSpace=wrap;connectable=0;strokeColor=inherit;overflow=hidden;fillColor=none;top=0;left=0;bottom=0;right=0;pointerEvents=1;fontSize=16;" vertex="1" parent="xrrrhTzWNszur-mvrJUN-87">
          <mxGeometry x="295" width="295" height="93" as="geometry">
            <mxRectangle width="295" height="93" as="alternateBounds" />
          </mxGeometry>
        </mxCell>
      </root>
    </mxGraphModel>
  </diagram>
</mxfile>
